<svg width="1440" height="1404" viewBox="0 0 1440 1404" fill="none" xmlns="http://www.w3.org/2000/svg">
<g clip-path="url(#clip0_2_262)">
<path d="M0 0H1440V1404H0V0Z" fill="#162E3C"/>
<path fill-rule="evenodd" clip-rule="evenodd" d="M1324.27 114.937C1288.59 115.196 1247.93 125.479 1222.29 100.758C1196.5 75.8946 1200.19 34.7003 1204.21 -0.824013C1207.71 -31.7202 1221.45 -59.2834 1242.94 -81.832C1265.14 -105.115 1292.17 -123.877 1324.27 -126.789C1359.4 -129.976 1398.55 -124.403 1421.9 -98.0658C1444.52 -72.547 1435.44 -34.8634 1435.94 -0.824013C1436.44 34.0752 1449.05 74.1163 1424.77 99.2847C1400.35 124.603 1359.52 114.681 1324.27 114.937Z" fill="#1F3847"/>
<path d="M1236.41 136.308C1216.24 136.803 1214.69 116.404 1231.13 66.6452C1236.41 50.6351 1231.94 41.1158 1220.27 43.5883C1212.64 45.1955 1205.63 57.3722 1199.05 80.4903C1193.4 100.456 1187.32 106.02 1177.45 100.456C1167.22 94.646 1166.35 82.9629 1174.41 58.0517C1175.66 54.2815 1177.21 49.3988 1177.89 47.1735C1188.13 14.5984 1217.17 -8.89154 1248.45 -9.94187C1263.65 -10.4364 1247.64 -13.5893 1232.62 -11.2404C1204.57 -6.7899 1177.08 19.5425 1167.59 51.2522C1155.24 92.6057 1158.96 105.463 1183.35 105.524C1196.94 105.586 1198.37 103.98 1207.74 77.6479C1218.85 46.4941 1226.98 36.7889 1225.55 56.4455C1225.18 61.1433 1210.03 100.024 1210.03 115.91C1210.03 133.898 1224.12 145.272 1240.38 140.388C1247.21 138.286 1245.03 136.061 1236.41 136.308Z" fill="#DDF0A7"/>
<path d="M1313.98 16.3908C1299.89 0.195711 1271.1 -14.2696 1260.92 -10.2512C1256.7 -8.58275 1257.38 -6.60373 1262.22 -6.60373C1271.66 -6.60373 1289.65 2.8532 1300.27 13.3614C1329.12 41.9804 1330.61 94.0895 1303.68 128.087C1298.34 134.824 1284.88 139.955 1280.72 124.502C1277.86 113.746 1280.66 104.845 1285.87 92.5436C1295.05 71.0326 1294.12 61.3898 1282.7 61.3898C1274.02 61.3898 1271.16 65.3458 1260.92 91.6782C1252.67 112.881 1246.59 127.469 1244.91 130.002C1241.06 135.752 1247.95 135.629 1252.3 129.818C1254.96 126.233 1261.67 112.2 1263.59 106.205C1267.81 93.1618 1271.59 78.4502 1278.61 69.1782C1282.21 64.3568 1285.06 64.1719 1284.19 70.8477C1283.63 74.9274 1281.46 80.9228 1277.24 90.3807C1264.21 119.371 1268.06 137.914 1287.42 139.151C1302.38 140.078 1312.37 133.34 1320.62 114.859C1338.24 75.2982 1333.22 38.5199 1313.98 16.3908Z" fill="#DDF0A7"/>
<g clip-path="url(#clip1_2_262)">
<path fill-rule="evenodd" clip-rule="evenodd" d="M44.1871 1036.17C78.0255 1038.16 104.732 1062.49 127.291 1087.8C148.27 1111.34 164.992 1139.42 164.297 1170.96C163.615 1201.91 144.498 1227.61 123.704 1250.53C101.473 1275.03 77.2585 1302.82 44.1871 1303.36C10.8373 1303.9 -15.2514 1277.61 -37.9635 1253.16C-59.6142 1229.86 -76.7853 1202.71 -78.8357 1170.96C-81.0269 1137.03 -72.2282 1102.5 -49.3148 1077.4C-25.4376 1051.23 8.84238 1034.09 44.1871 1036.17Z" fill="#1F3847"/>
<path d="M29.9416 1092.21C47.6414 1090.96 47.8078 1090.88 47.8078 1088.55C47.8078 1085.3 39.9952 1077.99 37.669 1079.07C37.5858 1079.15 33.5146 1079.48 28.6948 1079.9C-0.722975 1082.31 -2.30274 1082.98 4.42852 1089.79C8.33421 1093.7 8.99983 1093.7 29.9416 1092.21Z" fill="#DDF0A7"/>
<path d="M41.9065 1116.9C43.7346 1120.98 50.8827 1121.23 78.6382 1118.4C87.1975 1117.49 88.1938 1114.41 81.2962 1109.83C76.8091 1106.84 73.7352 1106.68 59.442 1108.67C43.5693 1110.75 39.912 1112.5 41.9065 1116.9Z" fill="#DDF0A7"/>
<path d="M125.923 1144.34C125.923 1138.11 116.448 1136.11 98.6643 1138.52C85.3684 1140.35 81.8796 1142.43 84.7049 1146.84C88.6929 1152.74 125.923 1150.58 125.923 1144.34Z" fill="#DDF0A7"/>
<path d="M111.38 1087.3C115.619 1083.81 108.305 1076.16 101.159 1076.57C99.9122 1076.66 94.3446 1076.99 88.6107 1077.4C69.4977 1078.74 66.4227 1080.23 71.3258 1086.05C74.4829 1089.71 107.225 1090.79 111.38 1087.3Z" fill="#DDF0A7"/>
<path d="M61.9346 1148.67C61.9346 1145.17 52.2117 1140.68 46.4778 1141.43C46.0629 1141.52 42.7384 1141.85 39.0822 1142.26C20.1352 1144.26 14.0688 1148.67 22.7113 1154.32C27.6144 1157.48 61.9346 1152.58 61.9346 1148.67Z" fill="#DDF0A7"/>
<path d="M157.501 1112.5C157.501 1107.01 147.861 1104.18 134.648 1105.68C119.856 1107.42 114.621 1109.67 117.031 1113.41C120.106 1117.98 157.501 1117.15 157.501 1112.5Z" fill="#DDF0A7"/>
<path d="M68.9154 1185.42C74.8988 1184.92 83.7067 1184.34 88.3602 1184.01C97.7513 1183.43 99.1645 1182.18 94.3446 1178.6C90.2725 1175.61 63.6806 1174.28 54.9549 1176.69C41.243 1180.52 51.2155 1186.75 68.9154 1185.42Z" fill="#DDF0A7"/>
<path d="M1.76984 1178.35C-15.1 1181.1 -20.8343 1184.84 -14.3524 1189C-8.3691 1192.74 27.9461 1186.92 25.1207 1182.68C21.7962 1177.69 14.5674 1176.28 1.76984 1178.35Z" fill="#DDF0A7"/>
<path d="M7.08842 1124.97C7.08842 1122.47 3.68124 1119.15 0.772694 1118.65C-4.04726 1117.82 -33.548 1118.15 -37.2875 1119.07C-46.6779 1121.31 -37.8694 1131.7 -31.72 1131.21C-31.3044 1131.12 7.08842 1128.46 7.08842 1124.97Z" fill="#DDF0A7"/>
<path d="M148.028 1243.55C142.958 1244.63 143.456 1248.7 149.357 1253.03C151.351 1254.52 180.353 1251.86 182.181 1249.95C187.168 1245.05 162.57 1240.39 148.028 1243.55Z" fill="#DDF0A7"/>
<path d="M198.053 1143.18C194.73 1140.02 166.31 1136.94 164.648 1139.52C163.069 1142.1 165.644 1148.5 181.766 1148.17C198.719 1147.92 202.375 1147.34 198.053 1143.18Z" fill="#DDF0A7"/>
<path d="M169.3 1172.7C167.639 1171.2 137.058 1170.79 127.418 1172.2C119.191 1173.45 116.948 1176.19 122.183 1178.69C125.425 1180.27 131.739 1179.1 164.397 1176.61C171.129 1176.03 172.126 1175.28 169.3 1172.7Z" fill="#DDF0A7"/>
<path d="M134.981 1207.96C132.571 1207.13 117.945 1206.88 110.965 1207.63C95.1755 1209.21 90.522 1211.62 94.7596 1215.86C97.4196 1218.52 100.41 1218.52 119.275 1215.77C127.253 1214.61 135.064 1213.7 136.56 1213.7C140.715 1213.7 139.635 1209.54 134.981 1207.96Z" fill="#DDF0A7"/>
<path d="M66.3396 1215.28C61.5197 1214.44 36.9213 1214.53 32.8501 1215.28C21.8804 1217.44 33.4315 1226.5 38.0849 1225.75C47.3097 1224.26 66.1732 1222.01 70.079 1222.01C77.1429 1222.01 74.1512 1216.61 66.3396 1215.28Z" fill="#DDF0A7"/>
<path d="M105.312 1250.03C102.82 1247.79 77.3083 1245.46 71.1594 1246.96C62.7655 1249.04 68.9143 1257.6 78.0559 1256.6C85.5348 1255.77 95.6726 1254.52 101.989 1254.44C107.307 1254.44 108.47 1252.86 105.312 1250.03Z" fill="#DDF0A7"/>
</g>
</g>
<defs>
<clipPath id="clip0_2_262">
<rect width="1440" height="1404" fill="white"/>
</clipPath>
<clipPath id="clip1_2_262">
<rect width="280" height="268" fill="white" transform="translate(-80 1036)"/>
</clipPath>
</defs>
</svg>
