<svg width="140" height="30" viewBox="0 0 140 30" fill="none" xmlns="http://www.w3.org/2000/svg">
<path d="M22.4191 13.371C22.0401 13.7523 21.7499 14.2125 21.569 14.7187C21.3882 15.225 21.3213 15.7649 21.373 16.3L21.355 16.282C21.4082 16.9119 21.3232 17.5457 21.1061 18.1394C20.889 18.733 20.5451 19.2721 20.0982 19.7191C19.6512 20.166 19.112 20.5101 18.5183 20.7271C17.9247 20.9442 17.2908 21.0292 16.661 20.976L16.6791 20.994C15.9257 20.9239 15.1689 21.0878 14.512 21.4635C13.8552 21.8392 13.3302 22.4083 13.0087 23.0933C12.6872 23.7783 12.5847 24.5457 12.7153 25.2911C12.846 26.0364 13.2033 26.7233 13.7386 27.2581C14.2739 27.7929 14.9611 28.1496 15.7065 28.2795C16.452 28.4095 17.2193 28.3063 17.904 27.9842C18.5887 27.662 19.1573 27.1366 19.5324 26.4794C19.9075 25.8222 20.0708 25.0654 20 24.312L20.019 24.33C19.9658 23.7002 20.0507 23.0663 20.2678 22.4726C20.4849 21.879 20.829 21.3399 21.2759 20.8929C21.7229 20.446 22.262 20.1019 22.8556 19.8849C23.4494 19.6678 24.0831 19.5828 24.713 19.636L24.694 19.618C25.3095 19.6733 25.929 19.5724 26.4951 19.3246C27.0611 19.0768 27.5554 18.6901 27.9322 18.2004C28.309 17.7107 28.5562 17.1337 28.6507 16.5231C28.7451 15.9124 28.684 15.2878 28.4727 14.707C28.2615 14.1263 27.9071 13.6083 27.4424 13.201C26.9777 12.7937 26.4178 12.5103 25.8144 12.3771C25.2109 12.2439 24.5837 12.2651 23.9907 12.4388C23.3976 12.6126 22.8582 12.9332 22.4221 13.371H22.4191Z" fill="white"/>
<path d="M15.0419 18.636L15.0229 18.618C15.5582 18.6719 16.0988 18.6062 16.6057 18.4256C17.1125 18.245 17.5729 17.9541 17.9535 17.5738C18.334 17.1935 18.6254 16.7333 18.8063 16.2266C18.9873 15.7199 19.0534 15.1794 18.9999 14.644L19.0189 14.662C18.9657 14.0321 19.0507 13.3983 19.2677 12.8046C19.4848 12.211 19.8289 11.6719 20.2758 11.2249C20.7228 10.778 21.2619 10.4339 21.8555 10.2169C22.4492 9.99976 23.083 9.91483 23.7129 9.968L23.6939 9.95C24.4474 10.0208 25.2043 9.85736 25.8615 9.4821C26.5188 9.10684 27.0442 8.53797 27.3662 7.8531C27.6882 7.16824 27.7911 6.40071 27.6609 5.6552C27.5307 4.90969 27.1737 4.22251 26.6385 3.68737C26.1034 3.15224 25.4162 2.7952 24.6707 2.66498C23.9252 2.53475 23.1577 2.63766 22.4728 2.95968C21.7879 3.28169 21.2191 3.80714 20.8438 4.46435C20.4685 5.12155 20.3051 5.87852 20.3759 6.632L20.3579 6.613C20.4112 7.24289 20.3264 7.87683 20.1094 8.47055C19.8924 9.06427 19.5483 9.60346 19.1014 10.0505C18.6544 10.4974 18.1152 10.8415 17.5215 11.0585C16.9277 11.2755 16.2938 11.3603 15.6639 11.307L15.6819 11.326C15.1466 11.2721 14.6059 11.3378 14.0991 11.5184C13.5923 11.6989 13.1319 11.9899 12.7513 12.3702C12.3707 12.7505 12.0794 13.2107 11.8984 13.7174C11.7175 14.2241 11.6514 14.7646 11.7049 15.3L11.6869 15.282C11.7399 15.9118 11.6548 16.5456 11.4377 17.1392C11.2205 17.7327 10.8765 18.2718 10.4296 18.7187C9.98267 19.1656 9.44363 19.5096 8.85007 19.7268C8.25651 19.9439 7.62272 20.029 6.99291 19.976L7.01091 19.994C6.25743 19.9232 5.50046 20.0866 4.84325 20.4619C4.18605 20.8372 3.6606 21.406 3.33859 22.0909C3.01657 22.7758 2.91365 23.5433 3.04388 24.2888C3.17411 25.0343 3.53115 25.7215 4.06628 26.2566C4.60142 26.7918 5.2886 27.1488 6.03411 27.279C6.77962 27.4092 7.54715 27.3063 8.23202 26.9843C8.91688 26.6623 9.48575 26.1369 9.86101 25.4797C10.2363 24.8224 10.3997 24.0655 10.3289 23.312L10.3479 23.33C10.2947 22.7001 10.3797 22.0663 10.5968 21.4726C10.8138 20.879 11.1579 20.3399 11.6048 19.8929C12.0518 19.446 12.5909 19.1019 13.1845 18.8849C13.7782 18.6678 14.412 18.5828 15.0419 18.636Z" fill="white"/>
<path d="M8.34009 16.6289C8.71911 16.2477 9.00929 15.7875 9.18993 15.2812C9.37057 14.7749 9.43721 14.2349 9.38509 13.6999L9.40408 13.7179C9.35088 13.0879 9.43584 12.4538 9.65305 11.86C9.87026 11.2662 10.2145 10.727 10.6617 10.28C11.1089 9.83306 11.6482 9.48907 12.2421 9.27212C12.836 9.05516 13.4701 8.97046 14.1001 9.02394L14.0811 9.00594C14.8343 9.07651 15.591 8.91302 16.2479 8.53778C16.9048 8.16255 17.4299 7.59382 17.7518 6.90917C18.0736 6.22451 18.1764 5.45726 18.0462 4.71203C17.916 3.9668 17.559 3.27988 17.0241 2.74494C16.4892 2.21 15.8022 1.85308 15.057 1.72286C14.3118 1.59263 13.5445 1.69545 12.8599 2.01727C12.1752 2.33909 11.6065 2.86426 11.2313 3.52116C10.856 4.17806 10.6925 4.93472 10.7631 5.68794L10.7451 5.66994C10.7983 6.29979 10.7133 6.93366 10.4962 7.5273C10.2791 8.12094 9.93511 8.66005 9.48815 9.10701C9.0412 9.55397 8.50208 9.898 7.90844 10.115C7.3148 10.3321 6.68094 10.4171 6.05109 10.3639L6.06909 10.3819C5.45366 10.3267 4.83425 10.4278 4.26827 10.6757C3.70229 10.9236 3.20804 11.3104 2.83133 11.8002C2.45462 12.2899 2.20764 12.8669 2.11326 13.4775C2.01889 14.0882 2.08018 14.7128 2.29145 15.2934C2.50272 15.8741 2.85715 16.392 3.32188 16.7992C3.78661 17.2065 4.34661 17.4898 4.94999 17.623C5.55336 17.7561 6.18059 17.7348 6.77356 17.5611C7.36652 17.3873 7.90602 17.0667 8.34208 16.6289H8.34009Z" fill="white"/>
<path d="M39.317 6.65503H42.287V21.108H39.317V6.65503Z" fill="white"/>
<path d="M43.969 16.159C43.9649 15.1204 44.2691 14.1038 44.8431 13.2382C45.4171 12.3726 46.2351 11.6968 47.1935 11.2965C48.1519 10.8961 49.2075 10.7892 50.2267 10.9893C51.2459 11.1894 52.1828 11.6874 52.9187 12.4204C53.6546 13.1533 54.1564 14.0882 54.3606 15.1066C54.5648 16.125 54.4621 17.1811 54.0656 18.1411C53.6691 19.101 52.9966 19.9218 52.1333 20.4992C51.2699 21.0767 50.2547 21.385 49.216 21.385C48.5266 21.3929 47.8425 21.2632 47.2037 21.0036C46.5649 20.744 45.9843 20.3597 45.4958 19.8732C45.0072 19.3866 44.6206 18.8075 44.3585 18.1698C44.0963 17.5321 43.9639 16.8485 43.969 16.159ZM51.493 16.159C51.4806 15.7113 51.3365 15.2772 51.0788 14.9109C50.821 14.5447 50.461 14.2625 50.0438 14.0998C49.6265 13.937 49.1706 13.9008 48.7329 13.9958C48.2952 14.0908 47.8952 14.3126 47.5829 14.6337C47.2707 14.9547 47.0599 15.3607 46.9772 15.8009C46.8944 16.241 46.9431 16.6958 47.1174 17.1084C47.2917 17.521 47.5837 17.873 47.9569 18.1205C48.3302 18.368 48.7682 18.5 49.216 18.5C49.5227 18.5082 49.8278 18.4527 50.1121 18.3371C50.3963 18.2215 50.6535 18.0483 50.8674 17.8284C51.0813 17.6084 51.2474 17.3465 51.355 17.0592C51.4627 16.7719 51.5097 16.4654 51.493 16.159Z" fill="white"/>
<path d="M66.3 11.2091V20.6091C66.3 23.9351 63.706 25.3411 61.073 25.3411C60.146 25.4105 59.2177 25.2232 58.39 24.7999C57.5624 24.3765 56.8673 23.7334 56.381 22.9411L58.915 21.4761C59.1194 21.8891 59.4451 22.2298 59.8484 22.4527C60.2518 22.6755 60.7136 22.7699 61.172 22.7231C61.465 22.7637 61.7634 22.7379 62.0451 22.6476C62.3267 22.5573 62.5845 22.4048 62.7993 22.2015C63.0141 21.9981 63.1804 21.7491 63.286 21.4727C63.3915 21.1964 63.4335 20.8999 63.409 20.6051V19.7001C63.0612 20.1256 62.6186 20.4637 62.1165 20.6872C61.6144 20.9107 61.067 21.0134 60.518 20.9871C59.2118 20.9459 57.9729 20.3981 57.0635 19.4595C56.1541 18.521 55.6456 17.2654 55.6456 15.9586C55.6456 14.6518 56.1541 13.3962 57.0635 12.4577C57.9729 11.5191 59.2118 10.9713 60.518 10.9301C61.067 10.9038 61.6144 11.0065 62.1165 11.23C62.6186 11.4535 63.0612 11.7916 63.409 12.2171V11.2071L66.3 11.2091ZM63.41 15.9601C63.43 15.4815 63.3062 15.0078 63.0547 14.6001C62.8032 14.1923 62.4354 13.8692 61.9987 13.6723C61.562 13.4753 61.0764 13.4136 60.6043 13.495C60.1322 13.5764 59.6953 13.7972 59.3497 14.1291C59.0042 14.4609 58.7659 14.8885 58.6654 15.3569C58.565 15.8253 58.607 16.3131 58.7862 16.7574C58.9653 17.2017 59.2733 17.5823 59.6705 17.8501C60.0677 18.1179 60.536 18.2607 61.015 18.2601C61.3271 18.2819 61.6402 18.2381 61.9343 18.1315C62.2284 18.0249 62.4969 17.8578 62.7225 17.6412C62.9481 17.4245 63.1259 17.163 63.2443 16.8734C63.3627 16.5839 63.4192 16.2728 63.41 15.9601Z" fill="white"/>
<path d="M67.982 16.159C67.9779 15.1204 68.282 14.1038 68.8561 13.2382C69.4301 12.3726 70.248 11.6968 71.2064 11.2965C72.1648 10.8961 73.2205 10.7892 74.2397 10.9893C75.2589 11.1894 76.1958 11.6874 76.9317 12.4204C77.6676 13.1533 78.1693 14.0882 78.3735 15.1066C78.5777 16.125 78.475 17.1811 78.0785 18.1411C77.682 19.101 77.0096 19.9218 76.1463 20.4992C75.2829 21.0767 74.2676 21.385 73.2289 21.385C72.5395 21.3929 71.8553 21.2632 71.2166 21.0036C70.5778 20.744 69.9972 20.3597 69.5087 19.8732C69.0201 19.3866 68.6335 18.8075 68.3714 18.1698C68.1092 17.5321 67.9769 16.8485 67.982 16.159ZM75.5059 16.159C75.4935 15.7113 75.3494 15.2772 75.0917 14.9109C74.8339 14.5447 74.474 14.2625 74.0568 14.0998C73.6395 13.937 73.1835 13.9008 72.7459 13.9958C72.3082 14.0908 71.9082 14.3126 71.5959 14.6337C71.2837 14.9547 71.0728 15.3607 70.99 15.8009C70.9072 16.241 70.9561 16.6958 71.1304 17.1084C71.3047 17.521 71.5967 17.873 71.9699 18.1205C72.3432 18.368 72.781 18.5 73.2289 18.5C73.5356 18.5082 73.8408 18.4527 74.125 18.3371C74.4093 18.2215 74.6665 18.0483 74.8804 17.8284C75.0943 17.6084 75.2603 17.3465 75.3679 17.0592C75.4756 16.7719 75.5226 16.4654 75.5059 16.159Z" fill="white"/>
<path d="M79.861 8.55605C79.861 8.2036 79.9655 7.85907 80.1613 7.56603C80.3571 7.27298 80.6355 7.04457 80.9611 6.9097C81.2867 6.77482 81.645 6.73953 81.9907 6.80829C82.3363 6.87705 82.6539 7.04677 82.9031 7.29599C83.1523 7.5452 83.322 7.86272 83.3908 8.2084C83.4595 8.55407 83.4242 8.91237 83.2894 9.23799C83.1545 9.56361 82.9261 9.84192 82.633 10.0377C82.34 10.2335 81.9955 10.3381 81.643 10.3381C81.1719 10.3334 80.7213 10.1441 80.3881 9.81093C80.055 9.47775 79.8657 9.02721 79.861 8.55605ZM80.161 11.209H83.132V21.109H80.157L80.161 11.209Z" fill="white"/>
<path d="M95.9561 16.159C95.9904 16.8133 95.8951 17.4679 95.6755 18.0852C95.456 18.7025 95.1166 19.2703 94.6768 19.756C94.2371 20.2416 93.7056 20.6356 93.1131 20.9152C92.5205 21.1947 91.8786 21.3544 91.2241 21.385C90.6737 21.415 90.1236 21.3222 89.6135 21.1133C89.1034 20.9043 88.6463 20.5845 88.2751 20.177V25.068H85.3051V11.209H88.2751V12.139C88.6464 11.7318 89.1037 11.4122 89.6137 11.2035C90.1238 10.9947 90.6738 10.902 91.2241 10.932C91.8787 10.9625 92.5208 11.1221 93.1135 11.4017C93.7062 11.6813 94.2377 12.0753 94.6775 12.5611C95.1173 13.0469 95.4567 13.6149 95.6761 14.2324C95.8955 14.8498 95.9907 15.5046 95.9561 16.159ZM92.9861 16.159C92.9745 15.6957 92.8265 15.2461 92.5606 14.8664C92.2947 14.4868 91.9228 14.194 91.4914 14.0248C91.0599 13.8555 90.5881 13.8172 90.135 13.9148C89.6819 14.0123 89.2677 14.2413 88.9441 14.5731C88.6205 14.905 88.402 15.3248 88.3159 15.7803C88.2298 16.2357 88.2799 16.7063 88.46 17.1334C88.64 17.5605 88.9421 17.9249 89.3283 18.1812C89.7145 18.4374 90.1676 18.5741 90.6311 18.574C90.9493 18.5882 91.2669 18.5349 91.5631 18.4177C91.8592 18.3006 92.1273 18.1221 92.3496 17.8941C92.572 17.666 92.7436 17.3936 92.8533 17.0946C92.963 16.7956 93.0083 16.4767 92.9861 16.159Z" fill="white"/>
<path d="M105.121 18.138C105.121 20.415 103.142 21.385 101.004 21.385C100.14 21.4632 99.2726 21.2806 98.5137 20.8605C97.7548 20.4405 97.1394 19.8025 96.7469 19.029L99.3199 17.564C99.424 17.9215 99.6476 18.2326 99.9533 18.4451C100.259 18.6577 100.629 18.759 101 18.732C101.712 18.732 102.069 18.514 102.069 18.119C102.069 17.029 97.1979 17.604 97.1979 14.179C97.1979 12.02 99.0199 10.932 101.079 10.932C101.853 10.9075 102.619 11.0911 103.298 11.4636C103.977 11.8362 104.544 12.384 104.939 13.05L102.405 14.416C102.294 14.1567 102.109 13.9358 101.873 13.7809C101.637 13.626 101.361 13.544 101.079 13.545C100.564 13.545 100.247 13.745 100.247 14.099C100.251 15.228 105.121 14.475 105.121 18.138Z" fill="white"/>
<path d="M115.97 11.209V21.109H113V20.178C112.657 20.5888 112.222 20.9125 111.73 21.1225C111.238 21.3325 110.704 21.4228 110.17 21.386C108.17 21.386 106.47 19.961 106.47 17.286V11.209H109.44V16.851C109.415 17.0868 109.442 17.3252 109.519 17.5495C109.595 17.7739 109.72 17.9789 109.884 18.1502C110.048 18.3215 110.247 18.455 110.468 18.5415C110.688 18.628 110.925 18.6654 111.162 18.651C112.251 18.651 113.003 18.018 113.003 16.612V11.212L115.97 11.209Z" fill="white"/>
<path d="M133 15.03V21.108H130.03V15.287C130.03 14.297 129.555 13.664 128.605 13.664C127.615 13.664 127.06 14.357 127.06 15.525V21.108H124.091V15.287C124.091 14.297 123.616 13.664 122.665 13.664C121.675 13.664 121.121 14.357 121.121 15.525V21.108H118.151V11.208H121.121V12.118C121.429 11.7143 121.833 11.3941 122.296 11.1868C122.76 10.9794 123.268 10.8915 123.774 10.931C124.282 10.9061 124.788 11.0134 125.243 11.2423C125.697 11.4711 126.084 11.8139 126.367 12.237C126.696 11.7943 127.132 11.4423 127.634 11.2139C128.136 10.9855 128.688 10.8882 129.238 10.931C131.511 10.932 133 12.555 133 15.03Z" fill="white"/>
<path d="M135.512 11.148C136.729 11.148 137.716 10.1612 137.716 8.94399C137.716 7.72675 136.729 6.73999 135.512 6.73999C134.295 6.73999 133.308 7.72675 133.308 8.94399C133.308 10.1612 134.295 11.148 135.512 11.148Z" fill="white"/>
</svg>
