<svg width="88" height="79" viewBox="0 0 88 79" fill="none" xmlns="http://www.w3.org/2000/svg">
<path d="M69.7461 -43.5625C55.8051 -59.6228 27.308 -73.967 17.2357 -69.9826C13.0593 -68.3275 13.7348 -66.3657 18.525 -66.3657C27.8603 -66.3657 45.6709 -56.9873 56.1736 -46.5667C84.7316 -18.1857 86.2056 33.4886 59.551 67.2025C54.2692 73.8835 40.9424 78.9718 36.827 63.6473C34.0019 52.9814 36.7661 44.1545 41.925 31.9557C51.0146 10.6244 50.0929 1.06191 38.7923 1.06191C30.1941 1.06191 27.3689 4.985 17.2357 31.0975C9.0673 52.1232 3.04851 66.5896 1.39027 69.1023C-2.41753 74.8035 4.39957 74.6819 8.6987 68.9199C11.3396 65.3646 17.9727 51.4484 19.8762 45.503C24.0525 32.5686 27.7993 17.9802 34.7389 8.78548C38.301 4.00423 41.1262 3.82033 40.2663 10.4405C39.7141 14.4862 37.564 20.4321 33.3877 29.8107C20.4903 58.559 24.2981 76.9485 43.46 78.1744C58.2618 79.0944 68.1493 72.4124 76.3181 54.0848C93.7603 14.854 88.7851 -21.6178 69.7461 -43.5625Z" fill="#162E3C"/>
</svg>
