<svg width="93" height="81" viewBox="0 0 93 81" fill="none" xmlns="http://www.w3.org/2000/svg">
<path d="M74.9763 75.3559C55.016 75.8463 53.4806 55.6179 69.7559 6.27293C74.9763 -9.60327 70.5543 -19.0432 59.0081 -16.5913C51.4539 -14.9975 44.5138 -2.92237 38.0037 20.0031C32.4149 39.802 26.3961 45.3198 16.6309 39.803C6.49721 34.041 5.63744 22.455 13.6215 -2.24809C14.8498 -5.98727 16.385 -10.8292 17.0606 -13.036C27.1945 -45.3401 55.9373 -68.6337 86.891 -69.6758C101.938 -70.1662 86.0926 -73.2921 71.2299 -70.9628C43.4698 -66.5494 16.2624 -40.4368 6.86577 -8.99088C-5.35606 32.0176 -1.67114 44.7676 22.4654 44.8284C35.9156 44.8902 37.3282 43.2975 46.602 17.184C57.5955 -13.7102 65.641 -23.334 64.2284 -3.84125C63.8599 0.817406 48.8744 39.3744 48.8744 55.1275C48.8744 72.9657 62.8159 84.2446 78.9069 79.4015C85.6627 77.3174 83.5131 75.1107 74.9763 75.3559Z" fill="#162E3C"/>
</svg>
