<svg width="16" height="16" viewBox="0 0 16 16" fill="none" xmlns="http://www.w3.org/2000/svg">
<path d="M14.8354 14.364L14.3639 14.8354C14.1036 15.0957 13.6815 15.0957 13.4211 14.8354L8 9.4142L2.5788 14.8353C2.3185 15.0957 1.89638 15.0957 1.63603 14.8353L1.16462 14.3639C0.904273 14.1036 0.904273 13.6815 1.16462 13.4211L6.5858 8L1.16462 2.5788C0.904273 2.3185 0.904273 1.89638 1.16462 1.63603L1.63602 1.16463C1.89637 0.90428 2.3185 0.90428 2.5788 1.16463L8 6.5858L13.4211 1.16462C13.6815 0.90427 14.1036 0.90427 14.3639 1.16462L14.8354 1.63602C15.0957 1.89637 15.0957 2.3185 14.8354 2.5788L9.4142 8L14.8354 13.4211C15.0957 13.6815 15.0957 14.1036 14.8354 14.364Z" fill="#162E3C"/>
</svg>
