<svg width="1440" height="693" viewBox="0 0 1440 693" fill="none" xmlns="http://www.w3.org/2000/svg">
<g clip-path="url(#clip0_5227_2)">
<path fill-rule="evenodd" clip-rule="evenodd" d="M42.1799 247.359C5.84071 247.624 -35.574 258.104 -61.6848 232.907C-87.9481 207.565 -84.1869 165.577 -80.0941 129.368C-76.5345 97.8767 -62.5363 69.7826 -40.6483 46.7994C-18.0476 23.0681 9.48985 3.94423 42.1799 0.97637C77.9574 -2.27174 117.828 3.40785 141.608 30.253C164.647 56.2633 155.4 94.6729 155.906 129.368C156.424 164.939 169.265 205.752 144.538 231.405C119.666 257.212 78.0798 247.098 42.1799 247.359Z" fill="#1F3847"/>
<path d="M34.2245 112.116C46.3472 94.3249 34.813 77.4576 16.2926 85.8497C-0.292006 93.4026 -12.3306 111.025 -15.5296 132.509C-18.0552 149.21 19.3229 133.852 34.2245 112.116ZM-0.881256 124.285C5.01172 110.522 13.5145 99.8645 22.9432 94.4097C27.9943 91.4724 28.5838 91.8081 27.6575 97.0952C26.4795 103.222 11.2414 121.516 2.40203 127.139C-3.65942 130.999 -3.74356 130.999 -0.881256 124.285Z" fill="#DDF0A7"/>
<path d="M161.428 69.4846C142.655 74.6038 123.966 90.9684 123.966 102.466C123.966 107.837 129.186 111.781 131.374 107.92C132.047 106.746 132.721 106.83 137.435 109.179C150.148 115.557 172.372 104.815 180.707 88.45C187.273 75.6101 176.834 65.2885 161.428 69.4846ZM170.099 80.1426C166.732 89.8775 138.614 108.089 136.257 101.962C134.994 98.7732 152.505 85.0101 164.291 79.8908C171.278 76.7858 171.193 76.8697 170.099 80.1426Z" fill="#DDF0A7"/>
<path d="M18.3127 146.442C8.21085 150.049 -8.20535 168.344 -8.20535 176.065C-8.20535 176.652 -9.55232 179.924 -11.1519 183.281C-19.9072 201.493 0.213084 208.122 18.4816 193.101C46.6839 169.854 46.599 136.371 18.3127 146.442ZM28.4149 157.602C22.4385 177.324 -4.16455 194.023 -0.712899 190.835C-1.89149 191.254 -3.15443 190.248 -2.90182 188.989C-0.79724 178.667 13.4303 161.379 24.9636 155.253C29.2573 152.987 29.7619 153.322 28.4149 157.602Z" fill="#DDF0A7"/>
<path d="M165.469 117.237C143.665 124.034 116.726 150.134 123.124 158.191C132.131 169.604 163.785 157.434 181.632 135.615C192.577 122.187 183.316 111.614 165.469 117.237ZM174.14 127.81C169.426 136.538 133.478 159.868 129.69 157.434C127.165 155.84 129.101 152.735 132.216 153.238C135.331 153.826 135.499 153.657 140.55 148.035C146.948 140.901 157.64 131.502 166.142 126.802C173.719 122.691 175.403 125.545 174.14 127.81Z" fill="#DDF0A7"/>
<path d="M150.737 52.8688C180.622 35.0774 183.485 5.53706 154.693 12.5865C135.92 17.2021 118.998 34.9096 115.294 42.2108C111.59 49.6797 113.274 54.715 119.335 53.708C120.514 53.5401 121.441 53.6241 121.441 53.9598C121.441 60.3378 139.372 59.6664 150.737 52.8688ZM138.614 35.1606C147.958 27.272 162.691 19.2164 162.691 21.9858C162.691 26.6853 142.319 45.3998 132.805 49.3441C126.828 51.7778 131.037 41.5386 138.614 35.1606Z" fill="#DDF0A7"/>
<path d="M51.1455 119.166C51.819 118.41 55.2703 112.117 55.6071 111.613C56.5334 114.55 58.9745 116.9 61.9212 117.739C71.6867 120.593 84.0622 113.291 97.8686 96.1715C103.088 89.7096 105.866 84.5903 106.202 80.6461C108.223 57.8194 50.7248 75.359 48.3676 112.117C48.0309 117.572 49.6297 121.6 51.1455 119.166ZM70.2558 93.0664C82.5464 80.73 97.363 72.5057 95.7632 78.8838C94.4163 84.4226 87.008 92.6469 79.3479 99.0249C74.2118 103.389 64.783 110.27 62.7626 108.172C59.648 104.899 70.1709 93.1503 70.2558 93.0664Z" fill="#DDF0A7"/>
<path d="M61.5006 69.9042C76.4851 69.9042 102.077 45.9027 102.077 31.8878C102.077 22.9083 89.7869 17.8734 78.0848 21.9855C46.599 33.0635 33.8878 69.9042 61.5006 69.9042ZM61.5845 56.6447C64.4463 46.7419 72.0235 37.9301 82.3785 32.3075C88.5238 28.9506 88.6917 28.9506 87.5136 32.3075C84.3141 41.8745 59.0584 65.5403 61.5845 56.6447Z" fill="#DDF0A7"/>
<path d="M86.924 125.461C67.6458 132.174 43.5683 162.134 51.9869 168.764C53.166 169.686 54.0923 171.03 54.0923 171.785C54.0923 189.829 95.0059 171.701 105.614 149.042C113.443 132.594 103.172 119.754 86.924 125.461ZM95.7633 138.803C92.3958 149.126 70.5926 169.52 63.0154 169.771C57.8803 169.94 64.3624 160.792 65.6254 158.862C69.7502 152.4 84.0622 139.728 92.144 135.28C97.2791 132.426 97.6998 132.929 95.7633 138.803Z" fill="#DDF0A7"/>
</g>
<path fill-rule="evenodd" clip-rule="evenodd" d="M1416.35 160.265C1385.77 161.822 1362.6 184.312 1340.54 205.453C1317.85 227.193 1291.14 249.588 1290.45 280.926C1289.75 312.638 1313.91 338.074 1337.15 359.775C1359.45 380.605 1385.85 396.313 1416.35 398.515C1449.3 400.896 1485.13 395.913 1507.94 372.109C1530.42 348.648 1530.42 313.318 1529.01 280.926C1527.68 250.34 1521.27 219.741 1500.33 197.317C1478.66 174.105 1448.14 158.646 1416.35 160.265Z" fill="#1F3847"/>
<path d="M1347.11 230.477C1342.38 226.331 1338.88 219.359 1337.55 213.801C1335.75 205.887 1346.54 195.146 1355.34 214.083C1362.06 228.593 1369.25 230.383 1375.03 218.983C1380.8 207.488 1391.78 207.771 1388.28 219.265C1384.02 233.586 1358.66 240.464 1347.11 230.477Z" fill="#DDF0A7"/>
<path d="M1450.83 236.036C1435.41 247.53 1416.76 239.428 1414.11 220.019C1412.41 207.677 1426.6 207.771 1431.71 220.113C1438.15 235.659 1444.02 234.246 1447.24 216.345C1448.28 210.409 1454.62 207.206 1458.21 210.786C1463.04 215.591 1458.88 230.006 1450.83 236.036Z" fill="#DDF0A7"/>
<path d="M1409 274.758C1397.27 286.911 1372 279.092 1367.74 262.039C1365.37 252.712 1380.14 253.654 1387.42 263.263C1391.21 268.351 1394.05 270.706 1393.95 270.612C1395 271.554 1396.7 271.46 1397.55 270.33C1398.4 269.199 1400.2 265.713 1401.43 262.51C1404.17 255.632 1411.65 251.393 1415.06 254.785C1417.52 257.234 1413.73 269.858 1409 274.758Z" fill="#DDF0A7"/>
<path d="M1412.88 304.341C1408.43 295.579 1414.68 288.984 1423.2 293.601C1425.28 294.731 1427.83 297.652 1430.2 301.515C1438.62 315.176 1440.52 315.554 1445.72 304.531C1448.47 298.689 1449.79 297.464 1453.67 297.464C1461.43 297.464 1457.74 312.916 1448.56 318.663C1435.22 327.142 1421.78 321.771 1412.88 304.341Z" fill="#DDF0A7"/>
<path d="M1390.55 350.224C1396.42 349.659 1397.84 350.318 1403.61 356.348C1411.08 364.168 1417.61 359.268 1418.84 344.854C1419.22 340.143 1422.82 339.389 1425.94 343.252C1437.87 358.326 1410.99 379.053 1394.05 367.841C1385.44 362.094 1383.17 350.883 1390.55 350.224Z" fill="#DDF0A7"/>
<path d="M1283.23 201.647C1284.74 203.343 1287.49 207.206 1289.29 210.409C1296.95 224.164 1299.22 224.07 1307.74 209.938C1315.31 197.313 1324.02 199.103 1319.38 212.199C1313.32 229.346 1289.38 235.752 1278.31 223.221C1262.88 205.792 1275.09 192.697 1283.23 201.647Z" fill="#DDF0A7"/>
<path d="M1312.85 253.277C1314.74 254.973 1317.68 258.27 1319.29 260.625C1327.8 273.156 1330.83 272.779 1337.08 258.647C1340.96 249.791 1352.31 246.776 1349.95 260.154C1345.5 284.65 1304.33 284.462 1299.89 257.234C1298.75 250.356 1306.7 247.812 1312.85 253.277Z" fill="#DDF0A7"/>
<path d="M1346.07 296.144C1347.58 296.898 1352.13 300.761 1356.01 304.53C1368.4 316.589 1373.8 316.589 1378.72 304.059C1380.99 298.311 1381.84 297.558 1385.53 297.558C1393.1 297.558 1391.12 311.69 1382.79 317.154C1365.75 328.272 1335.09 316.966 1335.09 299.536C1335.19 295.768 1341.53 293.789 1346.07 296.144Z" fill="#DDF0A7"/>
<path fill-rule="evenodd" clip-rule="evenodd" d="M155.127 691.808C185.784 690.973 219.754 693.167 241.21 671.322C262.548 649.596 260.304 615.894 259.541 585.498C258.803 556.168 255.789 526.45 237.003 503.868C216.44 479.148 187.263 457.766 155.127 459.982C124.084 462.122 106.204 492.852 83.8429 514.427C60.8314 536.629 28.886 553.803 25.0384 585.498C20.9165 619.451 37.6804 654.46 64.211 676.141C88.9374 696.348 123.168 692.678 155.127 691.808Z" fill="#1F3847"/>
<path d="M53.1769 469.629C33.2387 469.139 31.7049 489.324 47.9627 538.562C53.1769 554.404 48.7598 563.823 37.2264 561.377C29.6804 559.786 22.7479 547.737 16.2448 524.861C10.662 505.105 4.64972 499.6 -5.10488 505.105C-15.2276 510.854 -16.0865 522.415 -8.11102 547.065C-6.88402 550.796 -5.35048 555.627 -4.67563 557.829C5.44726 590.063 34.1589 613.307 65.0788 614.346C80.1099 614.835 64.2817 617.955 49.4351 615.631C21.7049 611.227 -5.47298 585.171 -14.8595 553.793C-27.0681 512.873 -23.3871 500.151 0.723339 500.09C14.1589 500.028 15.57 501.618 24.8338 527.674C35.8154 558.501 43.8518 568.105 42.4412 548.654C42.0731 544.006 27.1037 505.533 27.1037 489.813C27.1037 472.014 41.0297 460.76 57.1033 465.592C63.8518 467.671 61.705 469.873 53.1769 469.629Z" fill="#DDF0A7"/>
<path d="M129.864 588.29C115.938 604.315 87.4719 618.629 77.4106 614.652C73.2388 613.001 73.9131 611.043 78.6984 611.043C88.0236 611.043 105.815 601.685 116.306 591.287C144.833 562.968 146.306 511.405 119.68 477.764C114.404 471.097 101.092 466.02 96.9806 481.312C94.1585 491.954 96.9198 500.762 102.073 512.934C111.153 534.22 110.232 543.762 98.9438 543.762C90.3549 543.762 87.5328 539.848 77.4106 513.791C69.2506 492.811 63.2383 478.376 61.5823 475.868C57.7787 470.18 64.588 470.301 68.8825 476.051C71.521 479.598 78.1468 493.484 80.0481 499.417C84.2199 512.323 87.9627 526.88 94.8947 536.055C98.453 540.826 101.275 541.009 100.416 534.403C99.8646 530.366 97.7168 524.434 93.545 515.075C80.6616 486.388 84.4653 468.039 103.606 466.815C118.392 465.898 128.269 472.565 136.429 490.853C153.852 529.999 148.882 566.392 129.864 588.29Z" fill="#DDF0A7"/>
<defs>
<clipPath id="clip0_5227_2">
<rect width="270" height="250" fill="white" transform="translate(-83)"/>
</clipPath>
</defs>
</svg>
